<?xml version="1.0" ?><svg id="Layer_1" style="enable-background:new 0 0 256 256;" version="1.1" viewBox="0 0 256 256" xml:space="preserve" xmlns="http://www.w3.org/2000/svg" xmlns:xlink="http://www.w3.org/1999/xlink"><g><path d="M97.1,170l-3.9,22.9c-0.6,3.7,0.9,7.4,3.9,9.6c1.7,1.3,3.7,1.9,5.8,1.9c1.6,0,3.1-0.4,4.6-1.1l20.6-10.8l20.6,10.8   c3.3,1.8,7.3,1.5,10.4-0.7c3.1-2.2,4.6-5.9,3.9-9.6l-3.9-22.9l16.6-16.2c2.7-2.6,3.7-6.5,2.5-10.1c-1.2-3.6-4.2-6.2-7.9-6.7   l-23-3.3l-10.3-20.8c-1.7-3.4-5.1-5.5-8.8-5.5c-3.8,0-7.2,2.1-8.8,5.5l-10.3,20.8l-23,3.3c-3.7,0.5-6.8,3.1-7.9,6.7   c-1.2,3.6-0.2,7.5,2.5,10.1L97.1,170z M112.9,143.1c1.6-0.2,3-1.3,3.7-2.7l11.3-23.2l11.4,23.2c0.7,1.5,2.1,2.5,3.7,2.7l25.5,3.6   l-18.4,18c-1.2,1.1-1.7,2.8-1.4,4.4l4.5,25.4l-22.9-12c-1.4-0.8-3.2-0.8-4.6,0L103,194.5l4.4-25.5c0.3-1.6-0.3-3.3-1.4-4.4   l-18.6-17.9L112.9,143.1z"/><path d="M234.5,35.8h-28v-15c0-2.7-2.2-5-5-5s-5,2.2-5,5v15H59.5v-15c0-2.7-2.2-5-5-5c-2.7,0-5,2.2-5,5v15h-28   c-8.7,0-15.7,7-15.7,15.7v24.9c0,0,0,0,0,0v148.1c0,8.7,7,15.7,15.7,15.7h213c8.7,0,15.7-7,15.7-15.7V76.4c0,0,0,0,0,0V51.5   C250.2,42.8,243.1,35.8,234.5,35.8z M240.3,224.5c0,3.2-2.6,5.8-5.8,5.8h-213c-3.2,0-5.8-2.6-5.8-5.8V81.4h224.5V224.5z    M240.3,71.5H15.7V51.5c0-3.2,2.6-5.8,5.8-5.8h213c3.2,0,5.8,2.6,5.8,5.8V71.5z"/></g></svg>